<svg width="24" height="24" viewBox="0 0 24 24" fill="none" xmlns="http://www.w3.org/2000/svg">
<path d="M22.65 4.08752C21.9 4.08752 21.3375 4.68752 21.3375 5.40002V12.9H20.7V11.5125C20.7 10.8375 20.1375 10.275 19.4625 10.275H17.2875C16.6125 10.275 16.05 10.8375 16.05 11.5125V12.9H15.4125V10.6125C15.4125 10.425 15.2625 10.2375 15.0375 10.2375H5.25C4.3125 10.2375 3.5625 10.9875 3.5625 11.925V12.8625H2.6625V10.725C2.6625 9.97502 2.0625 9.37502 1.35 9.37502C0.6 9.37502 0 9.97502 0 10.725V19.4625C0 19.65 0.15 19.8375 0.375 19.8375H2.325C2.5125 19.8375 2.7 19.6875 2.7 19.4625V16.9875H21.375V19.4625C21.375 19.65 21.525 19.8375 21.75 19.8375H23.625C23.8125 19.8375 24 19.6875 24 19.4625V5.43752C24 4.68752 23.4 4.08752 22.65 4.08752ZM1.95 19.1625H0.7125V10.8C0.7125 10.4625 0.975 10.2 1.3125 10.2C1.65 10.2 1.9125 10.4625 1.9125 10.8V19.1625H1.95ZM16.7625 11.55C16.7625 11.25 16.9875 11.025 17.2875 11.025H19.4625C19.7625 11.025 19.9875 11.25 19.9875 11.55V12.9375H16.8V11.55H16.7625ZM4.275 12C4.275 11.475 4.6875 11.025 5.25 11.025H14.7V12.9375H4.275V12ZM21.3375 16.35H2.6625V13.6875H21.3375V16.35ZM23.2875 19.1625H22.0875V5.43752C22.0875 5.10002 22.35 4.83752 22.6875 4.83752C23.025 4.83752 23.2875 5.10002 23.2875 5.43752V19.1625Z" fill="#2C2E63"/>
<path d="M19.9873 11.55V12.9375H16.7998V11.55C16.7998 11.25 17.0248 11.025 17.3248 11.025H19.4998C19.7248 11.025 19.9873 11.25 19.9873 11.55Z" fill="#F16D60"/>
<path d="M14.6999 11.025V12.9375H4.2749V12C4.2749 11.475 4.6874 11.025 5.2499 11.025H14.6999Z" fill="#EDECED"/>
<path d="M19.9873 11.55V12.9375H16.7998V12.2625H19.3123V11.025H19.4623C19.7248 11.025 19.9873 11.25 19.9873 11.55Z" fill="#E25E5A"/>
<path d="M14.6999 11.025V12.9375H4.2749V12.2625H13.9874V11.025H14.6999Z" fill="#D5D6D5"/>
<path d="M1.9499 10.8V19.1625H0.712402V10.8C0.712402 10.4625 0.974902 10.2 1.3124 10.2C1.6874 10.2 1.9499 10.4625 1.9499 10.8ZM23.2874 5.43752V19.1625H22.0874V5.43752C22.0874 5.10002 22.3499 4.83752 22.6874 4.83752C23.0249 4.83752 23.2874 5.10002 23.2874 5.43752Z" fill="#FFDB7C"/>
<path d="M21.3376 13.65H2.6626V16.3125H21.3376V13.65Z" fill="#B5D9E5"/>
<path d="M21.3376 13.65V16.35H2.6626V15.6H20.6251V13.65H21.3376Z" fill="#9FC2D7"/>
</svg>
