<svg width="28" height="28" viewBox="0 0 28 28" fill="none" xmlns="http://www.w3.org/2000/svg">
<path d="M7.21885 8.62968C7.12041 8.61874 4.74697 8.39999 2.70166 6.99999L3.25947 6.19061C5.08604 7.43749 7.28447 7.6453 7.30635 7.65624L7.21885 8.62968Z" fill="#7ABD4C"/>
<path d="M7.09863 8.4328C7.07676 8.41093 4.74707 6.13593 2.55957 5.34843L2.8877 4.41874C5.28301 5.27186 7.68926 7.63436 7.78769 7.7328L7.09863 8.4328ZM7.99551 7.84218C7.8752 7.72186 4.9877 4.98749 3.86113 2.3078L4.76895 1.92499C5.81895 4.4078 8.64082 7.09843 8.67363 7.1203L7.99551 7.84218Z" fill="#4FA812"/>
<path d="M7.77676 8.14844C7.75488 8.12656 5.55645 6.10312 3.98145 4.95469L4.56113 4.15625C6.19082 5.3375 8.35645 7.33906 8.45488 7.42656L7.77676 8.14844Z" fill="#7ABD4C"/>
<path d="M7.13132 7.09842C7.13132 7.09842 4.15632 9.85467 8.50945 13.5515C8.50945 13.5515 22.2251 25.7469 24.9266 25.0359C24.9266 25.0359 27.2563 25.3531 21.9626 18.6265C21.9626 18.6265 17.1063 12.3375 13.2454 8.36717C13.2563 8.36717 9.87664 4.71405 7.13132 7.09842Z" fill="#EB5900"/>
<path d="M18.0141 13.7156C16.8219 15.3344 15.5094 17.0078 14.3281 18.4625C14.6891 18.7578 15.0609 19.0531 15.4328 19.3484C16.5484 17.9703 17.7953 16.3844 18.9437 14.8422C18.6375 14.4703 18.3312 14.0984 18.0141 13.7156Z" fill="#DE4A00"/>
<path d="M9.62511 13.6391C9.55949 13.6391 9.48292 13.6172 9.42824 13.5735C6.12511 11.036 6.84699 8.81565 6.8798 8.72815C6.93449 8.55315 7.13136 8.46565 7.29542 8.52034C7.47042 8.57503 7.55792 8.76096 7.50324 8.93596C7.48136 9.01252 6.94542 10.8282 9.83292 13.0485C9.97511 13.1578 10.0079 13.3657 9.89855 13.5078C9.82199 13.5953 9.72355 13.6391 9.62511 13.6391Z" fill="#F48435"/>
<path d="M17.7954 6.09221C17.7844 5.99377 17.5329 3.62034 18.4954 1.34534L19.4032 1.72815C18.5391 3.77346 18.7688 5.96096 18.7688 5.98284L17.7954 6.09221Z" fill="#7ABD4C"/>
<path d="M18.7907 6.475L17.9595 5.93906C17.9813 5.90625 19.7532 3.17188 20.0813 0.875L21.0548 1.01719C20.6938 3.53281 18.8673 6.35469 18.7907 6.475ZM19.5563 7.21875L18.7142 6.69375C18.8017 6.55156 20.9235 3.18281 23.3188 1.55312L23.8767 2.37344C21.6563 3.89375 19.5782 7.18594 19.5563 7.21875Z" fill="#4FA812"/>
<path d="M19.2172 7.05469L18.375 6.54063C18.3859 6.51875 19.9391 3.95938 20.7594 2.1875L21.6562 2.59219C20.825 4.42969 19.2828 6.95625 19.2172 7.05469Z" fill="#7ABD4C"/>
<path d="M19.2718 5.70938C19.2718 5.70938 15.9796 3.33594 13.2233 8.34532C13.2233 8.34532 3.98113 24.2047 5.22801 26.7203C5.22801 26.7203 5.38113 29.0719 10.9264 22.5422C10.9264 22.5422 16.1218 16.5375 19.2499 11.9656C19.2499 11.9656 22.1483 7.92969 19.2718 5.70938Z" fill="#F47B1E"/>
<path d="M19.2497 5.70936C19.2497 5.70936 18.7575 5.35936 17.9919 5.20624C18.681 7.2953 17.3138 9.73436 17.3138 9.73436C14.656 14.7219 9.99658 21.3719 9.99658 21.3719C7.18564 25.4625 5.80752 26.4578 5.12939 26.5453C5.15127 26.6109 5.16221 26.6656 5.19502 26.7203C5.19502 26.7203 5.34814 29.0719 10.8935 22.5422C10.8935 22.5422 16.0888 16.5375 19.2169 11.9656C19.2169 11.9656 22.1263 7.92968 19.2497 5.70936Z" fill="#F3690B"/>
<path d="M13.1904 10.686C13.1467 10.686 13.092 10.675 13.0482 10.6531C12.8842 10.5766 12.8185 10.3797 12.8951 10.2156C15.0498 5.67658 17.2373 5.80783 17.3248 5.81877C17.5107 5.8297 17.642 5.99377 17.6201 6.1797C17.6092 6.3547 17.4451 6.49689 17.2701 6.47502C17.2373 6.47502 15.4107 6.45314 13.4857 10.5C13.4311 10.6094 13.3107 10.686 13.1904 10.686Z" fill="#F59653"/>
</svg>
