<svg width="25" height="24" viewBox="0 0 25 24" fill="none" xmlns="http://www.w3.org/2000/svg">
<path d="M15.2609 15.3375L13.25 13.9313L14.1218 12.4219C14.2859 12.1359 14.375 11.8125 14.375 11.4844V1.17188C14.375 0.65625 13.5359 0.234375 12.5 0.234375C11.464 0.234375 10.625 0.65625 10.625 1.17188V10.9828L9.1437 13.5469C8.6562 14.3906 8.89526 15.4641 9.69214 16.0219L11.8578 17.5359L10.7796 20.0203C10.6765 20.2547 10.625 20.5078 10.625 20.7656V23.7656H14.375V21.1547L15.9078 17.6203C16.264 16.8047 15.9921 15.8484 15.2609 15.3375Z" fill="#F4F5EF"/>
<path d="M15.9079 17.6203L14.3751 21.1547V23.7656H12.4532V21.1734L14.1313 17.3438L10.8735 14.4844L12.4532 11.4844V0.234375C12.5001 0.234375 12.4813 0.234375 12.4907 0.234375C13.5267 0.234375 14.3798 0.651562 14.3798 1.17188V11.4844C14.3798 11.8125 14.2954 12.1359 14.1267 12.4219L13.2501 13.9313L15.261 15.3375C15.9923 15.8484 16.2642 16.8047 15.9079 17.6203Z" fill="#D7D4C1"/>
<path d="M14.375 1.17188V6.79688C14.375 7.31719 13.5359 7.73438 12.5 7.73438C11.4641 7.73438 10.625 7.31719 10.625 6.79688V1.17188C10.625 0.651562 11.4641 0.234375 12.5 0.234375C13.5359 0.234375 14.375 0.651562 14.375 1.17188Z" fill="#E36415"/>
<path d="M14.3748 1.17188V6.79688C14.3748 7.31719 13.5217 7.73438 12.4857 7.73438C12.4764 7.73438 12.4998 7.73438 12.4482 7.73438V0.234375C12.4951 0.234375 12.4764 0.234375 12.4857 0.234375C13.5217 0.234375 14.3748 0.651562 14.3748 1.17188Z" fill="#B24E10"/>
<path d="M13.25 13.9313L11.8906 14.7328L15.2609 15.3375L13.25 13.9313Z" fill="#F4F5EF"/>
<path d="M11.8577 17.5359L13.2499 17.3438L11.0796 19.3266L11.8577 17.5359Z" fill="#D7D4C1"/>
<path d="M12.5 2.10938C13.5355 2.10938 14.375 1.68964 14.375 1.17188C14.375 0.654108 13.5355 0.234375 12.5 0.234375C11.4645 0.234375 10.625 0.654108 10.625 1.17188C10.625 1.68964 11.4645 2.10938 12.5 2.10938Z" fill="#EF8039"/>
<path d="M5.92344 19.5L3.88906 17.7797L3.35938 19.5H5.92344Z" fill="#EF8039"/>
<path d="M18.8423 18.2344L20.2813 16.2047L21.6407 17.4375L18.8423 18.2344Z" fill="#EF8039"/>
<path d="M7.82647 12.361L7.10928 10.6266L6.20459 11.3438L7.82647 12.361Z" fill="#EF8039"/>
<path d="M6.07812 23.7656C6.07812 21.7031 8.29531 20.9859 9.20469 21.5766C9.20469 21.5766 8.98438 19.5 10.8734 19.5C12.7625 19.5 13.25 21.1078 13.25 21.1078C15.3922 19.575 16.6109 20.4516 16.4234 21.7969C16.4234 21.7969 18.9219 20.9062 18.9219 23.7656H6.07812Z" fill="#6D6759"/>
<path d="M10.2067 22.3846C10.6057 22.7837 11.134 22.9024 11.3866 22.6498C11.6393 22.3972 11.5205 21.8689 11.1215 21.4698C10.7224 21.0708 10.1941 20.952 9.94151 21.2047C9.68888 21.4573 9.80759 21.9856 10.2067 22.3846Z" fill="#504C43"/>
<path d="M14.6937 23.4188C15.2581 23.4188 15.7156 23.1291 15.7156 22.7719C15.7156 22.4146 15.2581 22.125 14.6937 22.125C14.1294 22.125 13.6719 22.4146 13.6719 22.7719C13.6719 23.1291 14.1294 23.4188 14.6937 23.4188Z" fill="#504C43"/>
</svg>
