<svg width="24" height="24" viewBox="0 0 24 24" fill="none" xmlns="http://www.w3.org/2000/svg">
<path d="M21.8577 13.003C20.6033 18.7794 17.5311 19.7243 14.1535 18.9909C10.7761 18.2575 8.3723 16.1235 9.62663 10.347C10.881 4.57049 18.0134 1.2157 18.0134 1.2157C18.0134 1.2157 23.112 7.22643 21.8577 13.003Z" fill="#2F803E"/>
<path d="M21.8344 13.0029C20.7141 18.1629 18.143 19.4674 15.1997 19.1646C17.4956 18.8955 19.4091 17.2634 20.3344 13.0029C21.3587 8.28632 18.1472 3.41367 16.9345 1.78429C17.5781 1.40929 17.9902 1.2157 17.9902 1.2157C17.9902 1.2157 23.0887 7.22648 21.8344 13.0029Z" fill="#226432"/>
<path d="M13.33 23.1359C13.3053 23.1359 13.2802 23.1333 13.255 23.1278C13.0653 23.0866 12.9449 22.8994 12.9861 22.7097L16.7267 5.48385C16.7679 5.2941 16.9549 5.17363 17.1449 5.21488C17.3346 5.25608 17.455 5.4433 17.4138 5.63301L13.6732 22.8589C13.6375 23.0235 13.4918 23.1359 13.33 23.1359Z" fill="#226432"/>
<path d="M16.349 9.23182C16.2334 9.23182 16.1202 9.17487 16.053 9.07039C15.948 8.90707 15.9952 8.68953 16.1585 8.58453L18.4717 7.09671C18.635 6.99167 18.8524 7.03887 18.9575 7.20218C19.0626 7.36549 19.0153 7.58304 18.852 7.68804L16.5389 9.17585C16.48 9.21378 16.4141 9.23182 16.349 9.23182Z" fill="#226432"/>
<path d="M16.3492 9.23185C16.2337 9.23185 16.1204 9.1749 16.0533 9.07041L14.5154 6.67932C14.4104 6.51601 14.4576 6.29846 14.6209 6.19346C14.7841 6.08851 15.0017 6.13566 15.1067 6.29898L16.6446 8.69007C16.7497 8.85338 16.7024 9.07093 16.5391 9.17593C16.4803 9.2138 16.4144 9.23185 16.3492 9.23185ZM15.6122 12.6263C15.4966 12.6263 15.3833 12.5693 15.3162 12.4648C15.2112 12.3016 15.2584 12.084 15.4217 11.979L19.537 9.33212C19.7002 9.22716 19.9178 9.27432 20.0228 9.43763C20.1278 9.60094 20.0806 9.81849 19.9173 9.92349L15.802 12.5703C15.7432 12.6082 15.6773 12.6263 15.6122 12.6263Z" fill="#226432"/>
<path d="M15.6119 12.6263C15.4963 12.6263 15.3831 12.5693 15.3159 12.4649L12.7205 8.42968C12.6154 8.26637 12.6627 8.04887 12.8259 7.94382C12.9893 7.83877 13.2068 7.88598 13.3118 8.04929L15.9072 12.0844C16.0123 12.2477 15.965 12.4653 15.8018 12.5703C15.7429 12.6082 15.677 12.6263 15.6119 12.6263ZM14.8008 16.3612C14.6852 16.3612 14.572 16.3042 14.5049 16.1998C14.3998 16.0365 14.4471 15.8189 14.6103 15.7139L19.6082 12.4993C19.7715 12.3943 19.9891 12.4415 20.0941 12.6048C20.1992 12.7681 20.1519 12.9856 19.9886 13.0906L14.9907 16.3052C14.9319 16.3431 14.866 16.3612 14.8008 16.3612Z" fill="#226432"/>
<path d="M14.8011 16.3612C14.6855 16.3612 14.5723 16.3042 14.5051 16.1998L11.4099 11.3876C11.3049 11.2243 11.3521 11.0067 11.5154 10.9017C11.6788 10.7967 11.8963 10.844 12.0013 11.0072L15.0964 15.8194C15.2015 15.9827 15.1542 16.2002 14.9909 16.3052C14.9321 16.3431 14.8662 16.3612 14.8011 16.3612Z" fill="#226432"/>
<path d="M11.7207 12.6949C12.9247 17.2009 11.1097 18.9724 8.47503 19.6764C5.84037 20.3803 3.3837 19.75 2.17981 15.2441C0.97592 10.738 4.77045 5.81055 4.77045 5.81055C4.77045 5.81055 10.5169 8.18889 11.7207 12.6949Z" fill="#5FAF46"/>
<path d="M9.36881 19.3799C10.8749 18.3613 11.6221 16.5262 10.7366 13.2122C9.74428 9.4978 5.66568 7.22951 4.26318 6.54701C4.56459 6.07873 4.77084 5.81061 4.77084 5.81061C4.77084 5.81061 10.5172 8.18905 11.721 12.6946C12.7832 16.6696 11.4955 18.5165 9.36881 19.3799Z" fill="#448D41"/>
<path d="M9.2657 22.9871C9.1104 22.9871 8.96828 22.8833 8.92628 22.7262L5.33622 9.28902C5.28611 9.10143 5.39753 8.90873 5.58512 8.85862C5.77267 8.80851 5.96542 8.91993 6.01553 9.10752L9.60559 22.5447C9.6557 22.7323 9.54428 22.925 9.35669 22.9751C9.32626 22.9832 9.29575 22.9871 9.2657 22.9871Z" fill="#448D41"/>
<path d="M6.3679 12.141C6.30818 12.141 6.24766 12.1259 6.19221 12.0937C6.02416 11.9966 5.96669 11.7815 6.06386 11.6134L7.15029 9.73481C7.2475 9.56676 7.46257 9.50929 7.63066 9.60647C7.79871 9.70369 7.85618 9.91875 7.759 10.0868L6.67258 11.9655C6.60743 12.0781 6.4893 12.141 6.3679 12.141Z" fill="#448D41"/>
<path d="M6.36784 12.141C6.30813 12.141 6.24761 12.1258 6.19216 12.0937L4.25031 10.9707C4.08227 10.8735 4.0248 10.6585 4.12197 10.4904C4.21919 10.3223 4.4342 10.2649 4.60234 10.362L6.54419 11.485C6.71224 11.5822 6.7697 11.7973 6.67253 11.9654C6.60738 12.0781 6.48925 12.141 6.36784 12.141ZM7.07533 14.7889C7.01561 14.7889 6.95509 14.7737 6.89964 14.7416C6.73159 14.6444 6.67413 14.4294 6.7713 14.2613L8.70405 10.9192C8.80127 10.7511 9.01638 10.6936 9.18442 10.7908C9.35247 10.8881 9.40994 11.1031 9.31277 11.2712L7.38002 14.6133C7.31481 14.726 7.19669 14.7889 7.07533 14.7889Z" fill="#448D41"/>
<path d="M7.07515 14.7889C7.01543 14.7889 6.95491 14.7737 6.89946 14.7416L3.62238 12.8464C3.45434 12.7492 3.39687 12.5342 3.49404 12.3661C3.59126 12.198 3.80632 12.1405 3.97441 12.2378L7.25149 14.133C7.41954 14.2302 7.47701 14.4452 7.37984 14.6133C7.31463 14.7259 7.19651 14.7889 7.07515 14.7889ZM7.85351 17.7022C7.79379 17.7022 7.73327 17.687 7.67782 17.6549C7.50977 17.5578 7.45231 17.3427 7.54948 17.1746L9.89679 13.1157C9.99401 12.9477 10.2091 12.8901 10.3772 12.9874C10.5452 13.0846 10.6027 13.2997 10.5055 13.4678L8.1582 17.5266C8.09299 17.6393 7.97492 17.7022 7.85351 17.7022Z" fill="#448D41"/>
<path d="M7.85358 17.7023C7.79386 17.7023 7.73335 17.6871 7.67789 17.655L3.76988 15.395C3.60178 15.2978 3.54431 15.0828 3.64153 14.9147C3.73875 14.7466 3.95386 14.689 4.12186 14.7864L8.02988 17.0463C8.19797 17.1435 8.25544 17.3586 8.15822 17.5267C8.09306 17.6394 7.97499 17.7023 7.85358 17.7023Z" fill="#448D41"/>
</svg>
