<svg width="24" height="24" viewBox="0 0 24 24" fill="none" xmlns="http://www.w3.org/2000/svg">
<g clip-path="url(#clip0_54_624)">
<path d="M9.32018 14.2462C8.69154 13.8539 7.98927 13.5943 7.25657 13.4834C6.52388 13.3726 5.77625 13.4128 5.05968 13.6017C4.34311 13.7905 3.67275 14.124 3.08985 14.5815C2.50694 15.0391 2.02381 15.611 1.67018 16.2622C1.28303 17.0626 1.10141 17.9469 1.14174 18.8351C1.18207 19.7233 1.44308 20.5875 1.90118 21.3495C2.34753 22.1402 2.99622 22.798 3.78068 23.2552C4.74532 23.6321 5.79463 23.7382 6.81518 23.562C7.75868 23.4757 8.84018 22.9042 9.75593 23.1217C10.7397 23.3525 11.7597 23.3841 12.7559 23.2147C15.141 22.7111 17.3994 21.7296 19.3949 20.3295C20.5486 19.5794 21.5896 18.6687 22.4864 17.625C23.0647 16.875 22.8502 16.35 22.6754 15.525C22.1967 13.2648 21.4109 11.0808 20.3399 9.03374C19.301 7.05168 18.0034 5.21639 16.4812 3.57599C14.9581 2.38641 13.261 1.43831 11.4494 0.76499C10.2884 0.33299 9.81968 0.0944895 8.85743 0.95399C7.83218 1.86974 6.74993 3.41249 7.26968 4.86074C7.56968 5.69249 8.54468 6.67949 9.35543 6.56399C9.80993 6.49874 9.89543 6.12974 10.5022 6.07724C11.0272 6.03149 11.2409 6.28499 11.8927 6.28574C12.4102 6.28574 12.4327 6.08849 12.8309 6.11174C13.0908 6.14529 13.3414 6.2302 13.5682 6.36153C13.7949 6.49287 13.9933 6.668 14.1517 6.87674C14.3402 7.13998 14.4689 7.44121 14.5289 7.75936C14.5888 8.07752 14.5786 8.40494 14.4989 8.71874V13.3072C13.6462 12.9011 12.6874 12.7732 11.758 12.9416C10.8286 13.11 9.97556 13.5661 9.31943 14.2455L9.32018 14.2462Z" fill="#FAC47E"/>
<path d="M23.1001 15.7103L23.0416 15.4448C22.556 13.1509 21.7586 10.9343 20.6716 8.85678C19.6073 6.8284 18.2754 4.95213 16.7116 3.27828C15.158 2.06597 13.4273 1.09969 11.5801 0.413281L11.4136 0.351031C10.3396 -0.0502193 9.6886 -0.293969 8.60785 0.674281C8.0311 1.18953 6.20785 3.02103 6.91735 4.98828C7.2481 5.90403 8.36485 7.08828 9.40885 6.93828C9.64117 6.89995 9.85984 6.80288 10.0441 6.65628C10.1828 6.53915 10.3545 6.46811 10.5353 6.45303C10.7117 6.44158 10.8885 6.46713 11.0543 6.52803C11.3254 6.615 11.6082 6.66026 11.8928 6.66228C12.1181 6.66636 12.3417 6.62398 12.5498 6.53778C12.6296 6.49936 12.718 6.4823 12.8063 6.48828C13.2225 6.5505 13.5979 6.77279 13.8526 7.10778C14.0069 7.32533 14.1121 7.57388 14.1606 7.83615C14.2092 8.09843 14.2001 8.36814 14.1338 8.62653C14.126 8.65717 14.122 8.68866 14.1218 8.72028V12.75C13.2943 12.4689 12.4064 12.4157 11.5512 12.5961C10.6961 12.7765 9.90527 13.1838 9.26185 13.7753C7.91133 13.0393 6.32678 12.8598 4.84585 13.275C4.09864 13.4779 3.40145 13.833 2.79807 14.3182C2.19468 14.8034 1.69813 15.408 1.3396 16.0943C0.92378 16.9507 0.7281 17.8974 0.770268 18.8485C0.812435 19.7996 1.09112 20.7252 1.5811 21.5415C2.06058 22.3928 2.75995 23.0997 3.6061 23.5883C4.24326 23.8911 4.94514 24.0325 5.64985 24C6.04585 24 6.4516 23.973 6.84985 23.9363C7.24656 23.887 7.63844 23.8044 8.02135 23.6895C8.54782 23.4934 9.11302 23.4238 9.67135 23.4863C10.7101 23.7312 11.7877 23.7636 12.8393 23.5815C15.2749 23.0702 17.5808 22.068 19.6163 20.6363C20.8 19.8641 21.8664 18.9258 22.7828 17.85C23.0146 17.5504 23.1655 17.1963 23.221 16.8216C23.2766 16.4469 23.2349 16.0642 23.1001 15.7103ZM22.1888 17.3933C21.3174 18.4065 20.3059 19.2904 19.1851 20.0183C17.2374 21.3896 15.0308 22.3498 12.6998 22.8405C11.7522 23.004 10.7812 22.9741 9.84535 22.7528C9.16602 22.6537 8.47272 22.7251 7.82785 22.9605C7.48672 23.0645 7.13751 23.1397 6.78385 23.1855C5.83636 23.3562 4.86025 23.265 3.96085 22.9215C3.23611 22.4996 2.63761 21.8913 2.2276 21.1598C1.80138 20.4524 1.55803 19.6501 1.51953 18.8252C1.48104 18.0003 1.6486 17.1787 2.0071 16.4348C2.31834 15.8405 2.74911 15.317 3.27235 14.8971C3.79559 14.4773 4.39999 14.1701 5.0476 13.995C6.28571 13.6456 7.61033 13.7797 8.75335 14.37C8.58455 14.6001 8.44263 14.8487 8.33035 15.111C8.06705 15.748 7.98076 16.4443 8.0806 17.1263C8.09339 17.2155 8.13788 17.2971 8.20591 17.3562C8.27395 17.4153 8.36099 17.4479 8.4511 17.448C8.46908 17.4491 8.48711 17.4491 8.5051 17.448C8.60343 17.4337 8.69207 17.381 8.75155 17.3014C8.81103 17.2218 8.8365 17.1219 8.82235 17.0235C8.7421 16.4757 8.81101 15.9163 9.02185 15.4043C9.17884 15.0277 9.4105 14.6869 9.70285 14.4023L9.7081 14.3948C10.3128 13.8151 11.0797 13.4333 11.9067 13.3002C12.7338 13.167 13.5817 13.2888 14.3378 13.6493C14.395 13.6765 14.4581 13.6888 14.5213 13.6851C14.5844 13.6813 14.6456 13.6617 14.6992 13.6279C14.7527 13.5941 14.7968 13.5474 14.8274 13.492C14.858 13.4366 14.874 13.3743 14.8741 13.311V8.76378C14.9589 8.40136 14.9648 8.02495 14.8915 7.66004C14.8181 7.29513 14.6671 6.95026 14.4488 6.64878C14.258 6.39734 14.0183 6.18703 13.7442 6.03045C13.47 5.87387 13.1671 5.77424 12.8536 5.73753C12.6579 5.72367 12.4617 5.75765 12.2821 5.83653C12.1618 5.89716 12.027 5.92312 11.8928 5.91153C11.6784 5.90963 11.4656 5.8742 11.2621 5.80653C11.0076 5.71972 10.7385 5.68354 10.4701 5.70003C10.1574 5.72576 9.85911 5.84258 9.6121 6.03603C9.52346 6.11228 9.41642 6.16399 9.3016 6.18603C8.7196 6.26103 7.8766 5.43603 7.6216 4.72653C7.18435 3.51528 8.10235 2.12403 9.1066 1.22703C9.85285 0.560281 10.1273 0.664531 11.1503 1.04703L11.3183 1.11003C12.2693 1.46583 13.1897 1.89878 14.0701 2.40453C14.8134 2.83131 15.5272 3.30737 16.2068 3.82953C17.7061 5.44577 18.9842 7.2538 20.0078 9.20628C21.0629 11.2225 21.8368 13.3738 22.3081 15.6L22.3696 15.876C22.5188 16.5375 22.5938 16.8683 22.1888 17.3933ZM16.5143 18.5295C16.427 18.482 16.3244 18.4711 16.229 18.4993C16.1337 18.5274 16.0534 18.5922 16.0058 18.6795C15.5606 19.5014 14.8597 20.1559 14.0093 20.544C13.4374 20.7841 12.8215 20.9015 12.2014 20.8886C11.5813 20.8756 10.9708 20.7327 10.4093 20.469C10.3645 20.4425 10.3145 20.4255 10.2627 20.4194C10.2109 20.4132 10.1584 20.4179 10.1085 20.4331C10.0586 20.4484 10.0125 20.4739 9.97304 20.508C9.93358 20.5422 9.90167 20.5841 9.87936 20.6313C9.85704 20.6784 9.8448 20.7297 9.84343 20.7819C9.84206 20.834 9.85159 20.8859 9.8714 20.9341C9.89121 20.9824 9.92087 21.026 9.95848 21.0621C9.9961 21.0983 10.0408 21.1262 10.0898 21.144C10.7962 21.467 11.5632 21.636 12.3398 21.6398C13.0189 21.6416 13.6906 21.4997 14.3108 21.2235C15.3114 20.7677 16.1362 19.9984 16.6606 19.032C16.7065 18.9457 16.7169 18.8449 16.6896 18.7511C16.6623 18.6572 16.5994 18.5777 16.5143 18.5295Z" fill="black"/>
</g>
<defs>
<clipPath id="clip0_54_624">
<rect width="24" height="24" fill="white"/>
</clipPath>
</defs>
</svg>
