<svg width="29" height="28" viewBox="0 0 29 28" fill="none" xmlns="http://www.w3.org/2000/svg">
<path d="M27.6251 16.8394C27.6256 17.0571 27.5947 17.2737 27.5333 17.4825C24.6528 18.0519 21.7238 18.3391 18.7876 18.34C16.2326 18.3386 13.6895 17.9913 11.2276 17.3075L8.30951 16.4982C7.48194 16.2676 6.62672 16.1513 5.76764 16.1525C4.88587 16.1526 4.00836 16.2748 3.16014 16.5157L1.84326 16.8919C1.91329 15.4903 2.14525 14.1015 2.53451 12.7532L2.68764 12.215V12.0532C2.68794 11.3013 2.91014 10.5662 3.32639 9.94003C3.40151 9.82932 3.50325 9.73927 3.62228 9.67817C3.7413 9.61706 3.87377 9.58687 4.00752 9.59035C4.14126 9.59384 4.27198 9.63089 4.38766 9.69811C4.50334 9.76533 4.60026 9.86055 4.66951 9.97503C5.00024 10.5234 5.46557 10.9782 6.02139 11.2963C6.57932 11.6116 7.20927 11.7774 7.85014 11.7775C8.48369 11.7772 9.1084 11.6288 9.67451 11.3444L11.4376 10.465L10.4051 9.43253C10.2259 9.25232 10.1253 9.00855 10.1251 8.7544C10.1244 8.60548 10.159 8.45849 10.2259 8.32544C10.2928 8.19239 10.3902 8.07703 10.5101 7.98878L11.8751 6.96503L13.4589 8.7719C14.4408 9.89438 15.5661 10.8829 16.8058 11.7119C19.0285 13.1917 21.5694 14.1256 24.2214 14.4375L25.6389 14.6038C26.1863 14.6685 26.6909 14.9319 27.057 15.344C27.4232 15.7561 27.6253 16.2882 27.6251 16.8394Z" fill="#C2C3C5"/>
<path d="M1.87842 16.4443L3.15986 16.0782C4.00808 15.8373 4.88559 15.7151 5.76736 15.715C6.62644 15.7138 7.48166 15.8301 8.30923 16.0607L11.2274 16.87C13.6892 17.5538 16.2323 17.9011 18.7874 17.9025C21.7235 17.9016 24.6526 17.6144 27.533 17.045C27.5697 16.9163 27.5946 16.7845 27.6074 16.6513C27.5686 16.1343 27.3507 15.6471 26.9914 15.2734C26.632 14.8998 26.1537 14.6631 25.6386 14.6042L24.2211 14.4375C21.5691 14.1256 19.0282 13.1917 16.8055 11.7119C15.5658 10.8829 14.4405 9.89438 13.4586 8.7719L11.8749 6.96503L10.5099 7.98878C10.3899 8.07703 10.2925 8.19239 10.2256 8.32544C10.1587 8.45849 10.1242 8.60548 10.1249 8.7544C10.125 9.00855 10.2257 9.25232 10.4049 9.43253L11.4374 10.465L9.67423 11.3444C9.10812 11.6288 8.48341 11.7772 7.84985 11.7775C7.20899 11.7774 6.57904 11.6116 6.02111 11.2963C5.46529 10.9782 4.99995 10.5234 4.66923 9.97503C4.59998 9.86055 4.50306 9.76533 4.38738 9.69811C4.2717 9.63089 4.14098 9.59384 4.00724 9.59035C3.87349 9.58687 3.74102 9.61706 3.622 9.67817C3.50297 9.73927 3.40122 9.82932 3.32611 9.94003C2.90986 10.5662 2.68766 11.3013 2.68736 12.0532V12.215L2.53423 12.7532C2.18891 13.9576 1.96914 15.1946 1.87842 16.4443Z" fill="#DCDDDF"/>
<path d="M27.5331 17.4825C27.4791 17.6634 27.4027 17.8369 27.3056 17.9988C26.9941 18.519 26.5749 18.9665 26.0762 19.3113C25.5784 19.6568 25.0134 19.8938 24.4181 20.0069C21.029 20.6405 17.5889 20.9612 14.1412 20.965C10.2693 20.9694 5.33432 20.9782 3.49682 21C3.0007 21.0033 2.51537 20.8553 2.10557 20.5757L1.96119 20.4794C1.77682 20.3565 1.62565 20.1899 1.52109 19.9946C1.41653 19.7992 1.36182 19.581 1.36182 19.3594C1.36183 19.2979 1.36622 19.2365 1.37494 19.1757C1.4341 18.8139 1.54305 18.462 1.69869 18.13L1.81244 17.9025C1.81244 17.5657 1.82119 17.2288 1.84307 16.8919L3.15994 16.5157C4.00817 16.2748 4.88568 16.1526 5.76744 16.1525C6.62653 16.1513 7.48174 16.2676 8.30932 16.4982L11.2274 17.3075C13.6893 17.9913 16.2324 18.3386 18.7874 18.34C21.7236 18.3391 24.6527 18.0519 27.5331 17.4825Z" fill="#E16C7B"/>
<path d="M1.96119 20.4794L2.10557 20.5757C2.51537 20.8553 3.0007 21.0033 3.49682 21C5.33432 20.9782 10.2693 20.9694 14.1412 20.965C17.5889 20.9612 21.029 20.6405 24.4181 20.0069C25.0134 19.8938 25.5784 19.6568 26.0762 19.3113C26.5749 18.9665 26.9941 18.519 27.3056 17.9988C27.3134 17.9857 27.3191 17.9712 27.3266 17.9581C24.5126 18.5015 21.6534 18.7759 18.7874 18.7775C16.2324 18.7761 13.6893 18.4288 11.2274 17.745L8.30932 16.9357C7.48174 16.7051 6.62653 16.5888 5.76744 16.59C4.88568 16.5901 4.00817 16.7123 3.15994 16.9532L1.84307 17.3294C1.84307 17.3395 1.83344 17.3465 1.82907 17.3552C1.82338 17.5377 1.81244 17.7188 1.81244 17.9025L1.69869 18.13C1.54305 18.462 1.4341 18.8139 1.37494 19.1757C1.36622 19.2365 1.36183 19.2979 1.36182 19.3594C1.36182 19.581 1.41653 19.7992 1.52109 19.9946C1.62565 20.1899 1.77682 20.3565 1.96119 20.4794Z" fill="#DB4254"/>
<path d="M9.73513 19.0663C9.58584 18.8423 9.38358 18.6587 9.1463 18.5317C8.90903 18.4047 8.64407 18.3383 8.37494 18.3383H6.23119C4.74746 18.3383 3.26736 18.1917 1.81244 17.9008L1.69869 18.1283C1.54289 18.4607 1.43394 18.8132 1.37494 19.1756C1.36622 19.2365 1.36183 19.2979 1.36182 19.3594C1.36182 19.581 1.41653 19.7991 1.52109 19.9945C1.62565 20.1899 1.77682 20.3564 1.96119 20.4794L2.10557 20.5756C2.51537 20.8553 3.0007 21.0033 3.49682 21C4.86007 20.9838 7.92913 20.9746 11.0039 20.9694L10.9999 20.9633L9.73513 19.0663Z" fill="#9B3041"/>
<path d="M7.93744 18.7758H5.79369C4.38423 18.7739 2.97806 18.6398 1.59369 18.375C1.49277 18.6334 1.41945 18.9018 1.37494 19.1756C1.36622 19.2365 1.36183 19.2979 1.36182 19.3594C1.36182 19.581 1.41653 19.7991 1.52109 19.9945C1.62565 20.1899 1.77682 20.3564 1.96119 20.4794L2.10557 20.5756C2.51537 20.8553 3.0007 21.0033 3.49682 21C4.75244 20.9851 7.45488 20.9764 10.2781 20.9707L9.29763 19.5038C9.14834 19.2798 8.94608 19.0962 8.7088 18.9692C8.47153 18.8422 8.20657 18.7758 7.93744 18.7758Z" fill="#C6414D"/>
<path d="M7.75375 13.5258C9.5792 13.5258 11.3577 12.9475 12.834 11.8738L14.9865 10.3084C14.8837 10.2178 14.7866 10.1203 14.6864 10.0271H13.2908C12.6474 10.027 12.0129 10.1768 11.4375 10.4646L9.67437 11.344C9.10826 11.6284 8.48355 11.7767 7.85 11.7771C7.20913 11.7769 6.57918 11.6112 6.02125 11.2958C5.46549 10.9779 5.00016 10.5233 4.66937 9.97503C4.60012 9.86056 4.5032 9.76534 4.38753 9.69812C4.27185 9.6309 4.14113 9.59384 4.00738 9.59036C3.87364 9.58687 3.74116 9.61707 3.62214 9.67817C3.50312 9.73928 3.40137 9.82932 3.32625 9.94003C2.91 10.5662 2.6878 11.3013 2.6875 12.0532V12.2133L4.721 12.9758C5.69079 13.3394 6.71805 13.5257 7.75375 13.5258Z" fill="#E16C7B"/>
<path d="M11.0615 15.4162H11.0658C13.5887 16.1929 16.2136 16.5875 18.8533 16.587C20.9126 16.587 22.9978 16.4833 25.0501 16.2781C25.4121 16.2405 25.7556 16.0992 26.0393 15.8712C26.323 15.6432 26.5349 15.3382 26.6496 14.9927C26.4066 14.8259 26.1332 14.7085 25.845 14.6471L25.8415 14.6589C25.7882 14.858 25.6756 15.0362 25.5187 15.1698C25.3618 15.3035 25.168 15.3864 24.963 15.4075C22.9396 15.6096 20.8838 15.7137 18.8533 15.7137C16.3009 15.7143 13.7629 15.3327 11.3235 14.5815L10.5596 14.3465C10.3328 13.9673 10.0673 13.6127 9.76733 13.2882C9.42831 13.3672 9.08483 13.4256 8.73877 13.4632L8.96714 13.6995C9.88075 14.6159 10.439 15.8273 10.5421 17.1172L11.2295 17.308C11.3003 17.3276 11.3721 17.3443 11.443 17.3635L11.4307 17.2196C11.3963 16.6037 11.2719 15.9961 11.0615 15.4162Z" fill="#9A9B9F"/>
<path d="M7.84982 11.7775C7.20896 11.7774 6.57901 11.6116 6.02107 11.2963C5.46526 10.9782 4.99992 10.5234 4.6692 9.97503C4.59995 9.86056 4.50303 9.76534 4.38735 9.69812C4.27167 9.6309 4.14095 9.59384 4.0072 9.59036C3.87346 9.58687 3.74099 9.61707 3.62196 9.67817C3.50294 9.73928 3.40119 9.82932 3.32607 9.94003C3.0421 10.3715 2.84862 10.8561 2.75732 11.3645L4.72039 12.1008C6.05839 12.6026 7.49999 12.7646 8.91599 12.5723C10.332 12.3799 11.6781 11.8393 12.8338 10.9988L14.1717 10.0258H13.2906C12.6472 10.0257 12.0127 10.1755 11.4373 10.4633L9.6742 11.3427C9.10824 11.6277 8.48352 11.7766 7.84982 11.7775ZM15.2466 14.2726L17.4223 12.0969C17.2154 11.9713 17.0076 11.8462 16.8054 11.7119C16.7586 11.6804 16.7149 11.6454 16.6685 11.6135L14.628 13.654L15.2466 14.2726ZM17.4341 14.7101L19.1404 13.0038C18.8598 12.8758 18.5827 12.74 18.3091 12.5965L16.8159 14.0902L17.4341 14.7101ZM19.6216 15.1476L21.0299 13.7397C20.7214 13.6408 20.4163 13.5334 20.1147 13.4173L19.003 14.529L19.6216 15.1476Z" fill="#C6414D"/>
</svg>
