<svg width="24" height="24" viewBox="0 0 24 24" fill="none" xmlns="http://www.w3.org/2000/svg">
<path d="M4.33515 14.745L4.3329 14.7428C3.88561 14.4693 3.47235 14.1438 3.10178 13.773C1.84966 12.5181 1.14113 10.8212 1.12906 9.04847C1.117 7.27576 1.80236 5.56938 3.03728 4.29751L3.0399 4.29489C3.0594 4.27103 3.08031 4.24836 3.10253 4.22701C3.72917 3.59994 4.47324 3.1025 5.29222 2.7631C6.11119 2.42371 6.98902 2.24902 7.87553 2.24902C8.76204 2.24902 9.63986 2.42371 10.4588 2.7631C11.2778 3.1025 12.0219 3.59994 12.6485 4.22701C13.1802 4.75773 13.6185 5.3744 13.9449 6.05101L13.9472 6.05326C14.284 6.74337 14.4988 7.4866 14.582 8.25001L16.1248 13.875L8.99978 18.75L4.33515 14.745Z" fill="#E6E6E6"/>
<path d="M9.48598 12.9885L11.6959 13.6568L11.7431 15.9649L9.56248 16.7232L8.16748 14.8838L9.48598 12.9885Z" fill="#333333"/>
<path d="M9.00598 9.99533L8.2876 10.2108L9.41242 13.9607L10.1308 13.7453L9.00598 9.99533Z" fill="#333333"/>
<path d="M10.6155 13.5C10.7357 12.2872 11.2138 11.1376 11.9891 10.1973C12.7643 9.25692 13.8017 8.56834 14.9692 8.21906C16.1368 7.86979 17.3819 7.8756 18.5462 8.23574C19.7104 8.59589 20.7413 9.29411 21.5078 10.2416C22.2742 11.1892 22.7416 12.3432 22.8505 13.557C22.9594 14.7709 22.7048 15.9897 22.1193 17.0585C21.5337 18.1273 20.6436 18.9978 19.562 19.5594C18.4804 20.1211 17.2562 20.3484 16.0451 20.2125C15.692 20.1726 15.343 20.1025 15.0019 20.0029L10.5 14.25L10.6155 13.5Z" fill="#FF8C00"/>
<path d="M12.6509 9.49517L12.1206 10.0255L20.8107 18.7153L21.3411 18.185L12.6509 9.49517Z" fill="#353535"/>
<path d="M22.125 13.875C20.7331 13.8735 19.3986 13.3199 18.4143 12.3357C17.4301 11.3514 16.8765 10.0169 16.875 8.62501C16.8746 8.39389 16.8909 8.16305 16.9238 7.93427L17.6663 8.04039C17.6386 8.23403 17.6248 8.42941 17.625 8.62501C17.6274 9.27126 17.7685 9.90945 18.0387 10.4965C18.309 11.0835 18.7021 11.6057 19.1915 12.0277C19.681 12.4497 20.2553 12.7617 20.8757 12.9427C21.4961 13.1237 22.1481 13.1693 22.7876 13.0766L22.8953 13.8188C22.6402 13.8558 22.3828 13.8746 22.125 13.875Z" fill="#353535"/>
<path d="M20.7201 9.40964L14.6899 15.4398L15.2203 15.9701L21.2504 9.93997L20.7201 9.40964Z" fill="#353535"/>
<path d="M17.4968 17.8538C16.9343 18.27 16.1693 19.1738 14.9993 20.0063C14.527 20.3428 14.0249 20.6353 13.4993 20.88C12.2061 21.4724 10.7973 21.7696 9.375 21.75C7.95247 21.7698 6.54339 21.4726 5.25 20.88C4.7234 20.6355 4.22116 20.3417 3.75 20.0025C2.57625 19.17 1.81162 18.2663 1.25287 17.8538C1.21405 17.8295 1.18203 17.7958 1.15983 17.7558C1.13763 17.7158 1.12598 17.6708 1.12598 17.625C1.12598 17.5792 1.13763 17.5342 1.15983 17.4942C1.18203 17.4542 1.21405 17.4205 1.25287 17.3963C1.81162 16.9838 2.57625 16.08 3.75 15.2475C4.22116 14.9083 4.7234 14.6145 5.25 14.37C6.54339 13.7774 7.95247 13.4803 9.375 13.5C10.7975 13.4803 12.2066 13.7775 13.5 14.37C14.0257 14.6147 14.5278 14.9072 15 15.2438C16.17 16.0763 16.935 16.98 17.4975 17.3963C17.5362 17.4206 17.5681 17.4544 17.5902 17.4944C17.6122 17.5345 17.6238 17.5795 17.6237 17.6252C17.6236 17.6709 17.6119 17.7159 17.5897 17.7559C17.5675 17.7958 17.5355 17.8295 17.4968 17.8538Z" fill="#AF8861"/>
<path d="M5.25 14.37V20.88C4.7234 20.6355 4.22116 20.3417 3.75 20.0025V15.2475C4.22116 14.9083 4.7234 14.6145 5.25 14.37ZM15 15.2437V20.0062C14.5278 20.3428 14.0257 20.6353 13.5 20.88V14.37C14.0257 14.6147 14.5278 14.9072 15 15.2437ZM11.625 18H7.125C7.02554 18 6.93016 17.9605 6.85983 17.8902C6.78951 17.8198 6.75 17.7245 6.75 17.625C6.75 17.5255 6.78951 17.4302 6.85983 17.3598C6.93016 17.2895 7.02554 17.25 7.125 17.25H11.625C11.7245 17.25 11.8198 17.2895 11.8902 17.3598C11.9605 17.4302 12 17.5255 12 17.625C12 17.7245 11.9605 17.8198 11.8902 17.8902C11.8198 17.9605 11.7245 18 11.625 18Z" fill="#F2F2F2"/>
<path d="M7.875 19.125C7.77554 19.125 7.68016 19.0855 7.60983 19.0152C7.53951 18.9448 7.5 18.8495 7.5 18.75V16.5C7.5 16.4005 7.53951 16.3052 7.60983 16.2348C7.68016 16.1645 7.77554 16.125 7.875 16.125C7.97446 16.125 8.06984 16.1645 8.14017 16.2348C8.21049 16.3052 8.25 16.4005 8.25 16.5V18.75C8.25 18.8495 8.21049 18.9448 8.14017 19.0152C8.06984 19.0855 7.97446 19.125 7.875 19.125ZM9.375 19.125C9.27554 19.125 9.18016 19.0855 9.10983 19.0152C9.03951 18.9448 9 18.8495 9 18.75V16.5C9 16.4005 9.03951 16.3052 9.10983 16.2348C9.18016 16.1645 9.27554 16.125 9.375 16.125C9.47446 16.125 9.56984 16.1645 9.64017 16.2348C9.71049 16.3052 9.75 16.4005 9.75 16.5V18.75C9.75 18.8495 9.71049 18.9448 9.64017 19.0152C9.56984 19.0855 9.47446 19.125 9.375 19.125ZM10.875 19.125C10.7755 19.125 10.6802 19.0855 10.6098 19.0152C10.5395 18.9448 10.5 18.8495 10.5 18.75V16.5C10.5 16.4005 10.5395 16.3052 10.6098 16.2348C10.6802 16.1645 10.7755 16.125 10.875 16.125C10.9745 16.125 11.0698 16.1645 11.1402 16.2348C11.2105 16.3052 11.25 16.4005 11.25 16.5V18.75C11.25 18.8495 11.2105 18.9448 11.1402 19.0152C11.0698 19.0855 10.9745 19.125 10.875 19.125Z" fill="#F2F2F2"/>
<path d="M8.38438 6.99377L9.95825 8.68277L8.83813 10.7018L6.572 10.2604L6.2915 7.96877L8.38438 6.99377Z" fill="#333333"/>
<path d="M3.03762 4.29753L3.04025 4.29491L3.82775 4.44828L4.10675 6.74178L2.0165 7.71678L1.41162 7.06841C1.71947 6.02597 2.2777 5.07469 3.03762 4.29753ZM7.74462 2.25753C8.8374 2.2305 9.92007 2.47261 10.8972 2.96253L10.9902 3.72866L8.89512 4.70366L7.32237 3.01616L7.74462 2.25753ZM13.2635 9.00003L12.2435 8.06253L13.2057 5.96516L13.9445 6.05066L13.9467 6.05291C14.2839 6.74308 14.499 7.48644 14.5824 8.25003L13.2635 9.00003ZM2.57975 11.6528L4.85825 12.012L5.21975 14.2932L4.3355 14.7432L4.33325 14.7409C3.88596 14.4675 3.47269 14.142 3.10212 13.7712C2.72957 13.3985 2.4023 12.9831 2.12712 12.5337L2.57975 11.6528Z" fill="#333333"/>
<path d="M6.82961 9.46134L4.2373 12.1189L4.77418 12.6426L7.36649 9.98504L6.82961 9.46134Z" fill="#333333"/>
<path d="M12.6129 7.47977L9.4541 8.31201L9.64508 9.0369L12.8039 8.20466L12.6129 7.47977Z" fill="#333333"/>
<path d="M3.83149 6.14802L3.46729 6.80365L6.60122 8.54454L6.96542 7.8889L3.83149 6.14802Z" fill="#333333"/>
<path d="M8.57418 4.10949L7.92529 7.38483L8.66099 7.53058L9.30989 4.25524L8.57418 4.10949Z" fill="#333333"/>
<path d="M11.625 17.25H11.25V16.5C11.25 16.4005 11.2105 16.3052 11.1402 16.2348C11.0698 16.1645 10.9745 16.125 10.875 16.125C10.7755 16.125 10.6802 16.1645 10.6098 16.2348C10.5395 16.3052 10.5 16.4005 10.5 16.5V17.25H9.75V16.5C9.75 16.4005 9.71049 16.3052 9.64017 16.2348C9.56984 16.1645 9.47446 16.125 9.375 16.125C9.27554 16.125 9.18016 16.1645 9.10983 16.2348C9.03951 16.3052 9 16.4005 9 16.5V17.25H8.25V16.5C8.25 16.4005 8.21049 16.3052 8.14017 16.2348C8.06984 16.1645 7.97446 16.125 7.875 16.125C7.77554 16.125 7.68016 16.1645 7.60983 16.2348C7.53951 16.3052 7.5 16.4005 7.5 16.5V17.25H7.125C7.02554 17.25 6.93016 17.2895 6.85983 17.3598C6.78951 17.4302 6.75 17.5255 6.75 17.625C6.75 17.7245 6.78951 17.8198 6.85983 17.8902C6.93016 17.9605 7.02554 18 7.125 18H7.5V18.75C7.5 18.8495 7.53951 18.9448 7.60983 19.0152C7.68016 19.0855 7.77554 19.125 7.875 19.125C7.97446 19.125 8.06984 19.0855 8.14017 19.0152C8.21049 18.9448 8.25 18.8495 8.25 18.75V18H9V18.75C9 18.8495 9.03951 18.9448 9.10983 19.0152C9.18016 19.0855 9.27554 19.125 9.375 19.125C9.47446 19.125 9.56984 19.0855 9.64017 19.0152C9.71049 18.9448 9.75 18.8495 9.75 18.75V18H10.5V18.75C10.5 18.8495 10.5395 18.9448 10.6098 19.0152C10.6802 19.0855 10.7755 19.125 10.875 19.125C10.9745 19.125 11.0698 19.0855 11.1402 19.0152C11.2105 18.9448 11.25 18.8495 11.25 18.75V18H11.625C11.7245 18 11.8198 17.9605 11.8902 17.8902C11.9605 17.8198 12 17.7245 12 17.625C12 17.5255 11.9605 17.4302 11.8902 17.3598C11.8198 17.2895 11.7245 17.25 11.625 17.25Z" fill="black"/>
<path d="M21.3407 9.49538C20.5149 8.66674 19.4805 8.07678 18.3469 7.78797C17.2133 7.49916 16.0227 7.52223 14.9012 7.85475C14.7935 7.17216 14.5855 6.50924 14.2839 5.8875L14.2543 5.82975C13.568 4.44434 12.449 3.32024 11.0668 2.62763L11.0447 2.61675C9.70726 1.95772 8.19736 1.73302 6.72601 1.97405C5.25466 2.21509 3.89538 2.90981 2.83816 3.96113C2.81306 3.98434 2.78975 4.00941 2.76841 4.03613C1.46468 5.37866 0.741148 7.18002 0.753987 9.05137C0.766826 10.9227 1.51501 12.714 2.83704 14.0385C3.1196 14.3152 3.42506 14.5675 3.75016 14.7926C3.67741 14.8421 3.60429 14.8901 3.53229 14.9426C2.90582 15.3998 2.3135 15.902 1.76004 16.4453C1.52851 16.6746 1.28478 16.8913 1.02991 17.0944C0.943752 17.1536 0.87329 17.2328 0.824608 17.3254C0.775927 17.4179 0.750488 17.5208 0.750488 17.6254C0.750488 17.7299 0.775927 17.8329 0.824608 17.9254C0.87329 18.0179 0.943752 18.0972 1.02991 18.1564C1.28501 18.3597 1.52899 18.5767 1.76079 18.8063C2.31384 19.3486 2.90566 19.8499 3.53154 20.3063C4.02116 20.6595 4.54341 20.9651 5.09116 21.219C6.43509 21.8326 7.89789 22.1419 9.37516 22.125C10.8519 22.1422 12.3141 21.8332 13.6577 21.2201C14.153 20.9894 14.628 20.7172 15.0774 20.4064C15.6193 20.5537 16.1786 20.6272 16.7402 20.625C18.0287 20.6229 19.2877 20.239 20.3582 19.5218C21.4287 18.8047 22.2627 17.7864 22.755 16.5956C23.2472 15.4048 23.3755 14.0949 23.1238 12.8312C22.8721 11.5675 22.2516 10.4067 21.3407 9.49538ZM22.4094 13.11C21.2261 13.185 20.0611 12.7887 19.169 12.0075L20.9735 10.2034C21.7189 11.0159 22.2171 12.0243 22.4094 13.11ZM17.6402 8.4135C18.6683 8.57826 19.6331 9.01658 20.4335 9.6825L18.6508 11.4653C17.9891 10.6666 17.6264 9.6622 17.6252 8.625C17.6252 8.553 17.6364 8.484 17.6402 8.4135ZM16.8849 8.3445C16.8797 8.4375 16.8752 8.532 16.8752 8.625C16.8747 9.86212 17.3132 11.0593 18.1127 12.0034L16.6355 13.4805L12.9305 9.7755C14.0191 8.81364 15.4329 8.30203 16.8849 8.3445ZM13.8752 14.982C14.1287 15.1211 14.3777 15.2741 14.6252 15.4425V19.8075C14.3777 19.9759 14.1287 20.1285 13.8752 20.2676V14.982ZM15.3752 16.0058C15.7955 16.3504 16.1597 16.6916 16.4679 16.9834C16.7304 17.2335 16.9652 17.4544 17.1804 17.625C16.9659 17.7949 16.7327 18.0161 16.4679 18.2666C16.1597 18.5584 15.7955 18.8996 15.3752 19.2443V16.0058ZM15.194 14.9228C14.7106 14.579 14.1967 14.2803 13.6588 14.0303C12.825 13.6442 11.9399 13.3805 11.0308 13.2473C11.1954 12.1551 11.6698 11.1331 12.3977 10.3024L16.106 14.0108L15.194 14.9228ZM4.12516 15.4451C4.36724 15.2784 4.61756 15.1239 4.87516 14.9824V20.2676C4.61755 20.1261 4.36723 19.9716 4.12516 19.8049V15.4451ZM5.52879 13.8413L5.25954 12.1436L6.70029 10.6673L8.65029 11.0471L9.27466 13.1276C7.99193 13.1268 6.72064 13.3689 5.52804 13.8413H5.52879ZM4.45329 6.5025L4.19791 4.4025C4.18832 4.32397 4.15414 4.25049 4.10025 4.19256C4.04637 4.13464 3.97554 4.09524 3.89791 4.08L3.83679 4.068C4.76344 3.30538 5.88902 2.82392 7.08054 2.6805L6.99541 2.8335C6.95685 2.90277 6.94124 2.98247 6.9508 3.06116C6.96037 3.13986 6.99463 3.21349 7.04866 3.2715L8.44441 4.7715L8.05479 6.73575L6.32266 7.54088L4.45329 6.5025ZM10.5853 3.50438L8.98404 4.2495L7.78404 2.96025L7.96591 2.63325C8.85932 2.64091 9.74077 2.83947 10.5512 3.21563L10.5853 3.50438ZM8.64279 10.2818L6.91179 9.94425L6.69729 8.19338L8.29629 7.44825L9.49854 8.739L8.64279 10.2818ZM10.0637 13.1475L9.30804 10.629L10.2219 8.98163L12.1397 8.47688L12.6935 8.98688C12.4929 9.14522 12.3016 9.315 12.1205 9.49538C11.1307 10.4889 10.4872 11.7747 10.2853 13.1625C10.2114 13.1584 10.1379 13.152 10.0637 13.1475ZM13.3262 8.54738L12.6999 7.97138L13.4353 6.36938L13.6922 6.399C13.9365 6.94344 14.1017 7.52003 14.1827 8.11125C13.8861 8.23505 13.5992 8.38083 13.3243 8.54738H13.3262ZM13.2594 5.59425H13.2508C13.1721 5.58444 13.0924 5.60013 13.0234 5.63901C12.9543 5.6779 12.8996 5.73792 12.8672 5.81025L11.9792 7.74563L10.0667 8.2485L8.79166 6.87975L9.16666 4.9935L11.1508 4.07063C11.2225 4.03719 11.2818 3.98193 11.3202 3.91275C11.3586 3.84358 11.3741 3.76404 11.3645 3.6855V3.66825C11.7329 3.90738 12.0755 4.18385 12.3872 4.49325C12.7173 4.82678 13.0092 5.19606 13.2575 5.59425H13.2594ZM3.17341 4.70288L3.48766 4.7625L3.70104 6.51525L2.10316 7.26113L1.83766 6.975C2.11865 6.13233 2.57375 5.3582 3.17341 4.70288ZM1.61041 7.83225L1.73979 7.97175C1.77492 8.00952 1.81746 8.03964 1.86475 8.06022C1.91205 8.08081 1.96308 8.09141 2.01466 8.09138C2.06938 8.09153 2.12344 8.07949 2.17291 8.05613L4.09366 7.1625L5.94091 8.18888L6.17829 10.1291L4.72966 11.6138L2.63829 11.2841C2.56018 11.2718 2.48019 11.2845 2.40975 11.3204C2.3393 11.3563 2.282 11.4136 2.24604 11.484L2.11704 11.736C1.53872 10.5213 1.36131 9.15431 1.61041 7.83225ZM3.36729 13.5079C3.06609 13.2026 2.79671 12.8675 2.56329 12.5078L2.78829 12.0656L4.52904 12.3401L4.81816 14.1638C4.69141 14.2275 4.56641 14.2941 4.44316 14.3636C4.05424 14.1187 3.69345 13.8317 3.36729 13.5079ZM1.56954 17.625C1.78141 17.4566 2.01316 17.2376 2.27566 16.9875C2.58466 16.695 2.95066 16.3523 3.37441 16.0061V19.2401C2.95066 18.894 2.58466 18.5516 2.27566 18.2588C2.01354 18.0124 1.78216 17.7938 1.56954 17.625ZM5.62516 20.6336V14.6164C6.81095 14.1142 8.0875 13.8618 9.37516 13.875C10.6628 13.8618 11.9394 14.1142 13.1252 14.6164V20.6336C11.9393 21.1357 10.6628 21.388 9.37516 21.375C8.0875 21.3882 6.81093 21.1359 5.62516 20.6336ZM16.0877 19.8394C16.0153 19.8311 15.944 19.8165 15.872 19.8056C16.301 19.4528 16.6704 19.107 16.9828 18.8111C17.2162 18.5797 17.4619 18.361 17.7189 18.156C17.8049 18.0968 17.8752 18.0175 17.9238 17.9251C17.9724 17.8327 17.9978 17.7298 17.9978 17.6254C17.9978 17.521 17.9724 17.4181 17.9238 17.3257C17.8752 17.2332 17.8049 17.154 17.7189 17.0948C17.4617 16.8895 17.2157 16.6706 16.982 16.4389C16.6509 16.125 16.2587 15.756 15.7952 15.3806L16.6348 14.541L20.5303 18.4354C19.9292 18.9671 19.2232 19.3668 18.4579 19.6086C17.6927 19.8505 16.8852 19.9291 16.0877 19.8394ZM21.0613 17.9044L17.1662 14.0108L18.6377 12.5385C19.5956 13.3987 20.8376 13.8747 22.1252 13.875C22.2444 13.875 22.3652 13.8701 22.4867 13.8615C22.5534 15.3432 22.0422 16.793 21.0609 17.9051L21.0613 17.9044Z" fill="black"/>
</svg>
