<svg width="20" height="20" viewBox="0 0 20 20" fill="none" xmlns="http://www.w3.org/2000/svg">
<g clip-path="url(#clip0_25_318)">
<path d="M9.16699 3.33333C9.16699 3.79357 9.54009 4.16666 10.0003 4.16666C10.4606 4.16666 10.8337 3.79357 10.8337 3.33333H9.16699ZM10.8337 1.66666C10.8337 1.20643 10.4606 0.833331 10.0003 0.833331C9.54009 0.833331 9.16699 1.20643 9.16699 1.66666H10.8337ZM10.8337 16.6667C10.8337 16.2064 10.4606 15.8333 10.0003 15.8333C9.54009 15.8333 9.16699 16.2064 9.16699 16.6667H10.8337ZM9.16699 18.3333C9.16699 18.7936 9.54009 19.1667 10.0003 19.1667C10.4606 19.1667 10.8337 18.7936 10.8337 18.3333H9.16699ZM4.75625 5.93443C5.08168 6.25987 5.60932 6.25987 5.93476 5.93443C6.2602 5.60899 6.2602 5.08136 5.93476 4.75592L4.75625 5.93443ZM4.75625 3.57741C4.43081 3.25197 3.90317 3.25197 3.57774 3.57741C3.2523 3.90285 3.2523 4.43048 3.57774 4.75592L4.75625 3.57741ZM15.3629 14.184C15.0375 13.8586 14.5099 13.8586 14.1844 14.184C13.859 14.5094 13.859 15.0371 14.1844 15.3625L15.3629 14.184ZM15.3629 16.541C15.6884 16.8665 16.216 16.8665 16.5414 16.541C16.8669 16.2156 16.8669 15.6879 16.5414 15.3625L15.3629 16.541ZM3.33366 10.8333C3.7939 10.8333 4.16699 10.4602 4.16699 10C4.16699 9.53976 3.7939 9.16666 3.33366 9.16666V10.8333ZM1.66699 9.16666C1.20675 9.16666 0.833659 9.53976 0.833659 10C0.833659 10.4602 1.20675 10.8333 1.66699 10.8333V9.16666ZM16.667 9.16666C16.2068 9.16666 15.8337 9.53976 15.8337 10C15.8337 10.4602 16.2068 10.8333 16.667 10.8333V9.16666ZM18.3337 10.8333C18.7939 10.8333 19.167 10.4602 19.167 10C19.167 9.53976 18.7939 9.16666 18.3337 9.16666V10.8333ZM14.1848 4.75592C13.8594 5.08136 13.8594 5.60899 14.1848 5.93443C14.5103 6.25987 15.0379 6.25987 15.3633 5.93443L14.1848 4.75592ZM16.5419 4.75592C16.8673 4.43048 16.8673 3.90285 16.5419 3.57741C16.2164 3.25197 15.6888 3.25197 15.3633 3.57741L16.5419 4.75592ZM5.93517 15.3625C6.2606 15.0371 6.2606 14.5094 5.93517 14.184C5.60973 13.8586 5.08209 13.8586 4.75665 14.184L5.93517 15.3625ZM3.57814 15.3625C3.25271 15.6879 3.25271 16.2156 3.57814 16.541C3.90358 16.8665 4.43122 16.8665 4.75665 16.541L3.57814 15.3625ZM10.0003 13.3333C8.15938 13.3333 6.66699 11.8409 6.66699 10H5.00033C5.00033 12.7614 7.2389 15 10.0003 15V13.3333ZM6.66699 10C6.66699 8.15905 8.15938 6.66666 10.0003 6.66666V5C7.2389 5 5.00033 7.23857 5.00033 10H6.66699ZM10.0003 6.66666C11.8413 6.66666 13.3337 8.15905 13.3337 10H15.0003C15.0003 7.23857 12.7617 5 10.0003 5V6.66666ZM13.3337 10C13.3337 11.8409 11.8413 13.3333 10.0003 13.3333V15C12.7617 15 15.0003 12.7614 15.0003 10H13.3337ZM10.8337 3.33333V1.66666H9.16699V3.33333H10.8337ZM9.16699 16.6667V18.3333H10.8337V16.6667H9.16699ZM5.93476 4.75592L4.75625 3.57741L3.57774 4.75592L4.75625 5.93443L5.93476 4.75592ZM14.1844 15.3625L15.3629 16.541L16.5414 15.3625L15.3629 14.184L14.1844 15.3625ZM3.33366 9.16666H1.66699V10.8333H3.33366V9.16666ZM16.667 10.8333H18.3337V9.16666H16.667V10.8333ZM15.3633 5.93443L16.5419 4.75592L15.3633 3.57741L14.1848 4.75592L15.3633 5.93443ZM4.75665 14.184L3.57814 15.3625L4.75665 16.541L5.93517 15.3625L4.75665 14.184Z" fill="#7165E3"/>
</g>
<defs>
<clipPath id="clip0_25_318">
<rect width="20" height="20" fill="white"/>
</clipPath>
</defs>
</svg>
