<svg width="25" height="24" viewBox="0 0 25 24" fill="none" xmlns="http://www.w3.org/2000/svg">
<path d="M16.3366 3.63174C16.5554 3.52233 16.7742 3.41645 17.0001 3.32116C18.5174 3.5644 20.0695 3.20328 21.3236 2.31527C20.0495 1.33057 17.7201 1.76468 16.8977 3.10939C16.6048 3.23645 16.3154 3.3741 16.033 3.52586C16.8907 2.74939 17.5754 1.76116 17.5436 0.783508C15.426 1.18586 14.2401 3.08469 14.7942 4.31292C14.242 4.71019 13.7269 5.15673 13.2554 5.64704C13.8342 4.64821 14.1695 3.52939 13.8342 2.58704C11.9707 3.60351 11.4095 5.76351 12.3095 6.76233C11.9036 7.31712 11.5492 7.90781 11.2507 8.52704C11.5013 7.37645 11.4801 6.1941 10.8766 5.41057C9.43303 6.92469 9.52127 9.15527 10.6189 9.87527C9.44512 13.4442 9.12241 17.2382 9.67656 20.9541C9.68961 21.004 9.7207 21.0473 9.76381 21.0755C9.80692 21.1038 9.859 21.1151 9.90995 21.1072C9.9609 21.0993 10.0071 21.0727 10.0396 21.0327C10.0721 20.9927 10.0887 20.9421 10.086 20.8906C9.53429 17.2204 9.85594 13.4719 11.0248 9.94939C11.6728 9.88865 12.2959 9.66911 12.8388 9.31021C13.3818 8.95132 13.8279 8.46413 14.1377 7.89174C13.7126 7.67541 13.2269 7.60894 12.7593 7.7031C12.2917 7.79727 11.8695 8.04655 11.5613 8.41057C11.8326 7.87337 12.1465 7.35879 12.5001 6.87174C13.1389 7.05396 13.8145 7.06476 14.4588 6.90305C15.1032 6.74135 15.6936 6.41284 16.1707 5.95057C15.8344 5.61728 15.3962 5.40627 14.926 5.35125C14.4558 5.29623 13.9807 5.40037 13.5766 5.64704C14.0008 5.22452 14.4588 4.83735 14.946 4.48939C15.4992 4.85837 16.1401 5.07485 16.8037 5.11699C17.4674 5.15913 18.1305 5.02543 18.726 4.72939C18.5054 4.30774 18.1511 3.97121 17.7187 3.77257C17.2863 3.57393 16.8002 3.52439 16.3366 3.63174Z" fill="#FCB72B"/>
<path d="M23.794 6.30353C22.7352 5.08589 20.374 5.04706 19.3011 6.19059C18.9869 6.25765 18.6764 6.3353 18.3693 6.42706C19.3646 5.83765 20.2293 5.0153 20.3987 4.04471C18.2422 4.01295 16.6999 5.63295 16.9999 6.9353C16.3825 7.21252 15.7918 7.54567 15.2352 7.93059C16.0011 7.06589 16.5587 6.02471 16.4175 5.04706C14.3881 5.66824 13.4034 7.68353 14.0846 8.83412C13.5683 9.29417 13.0957 9.80104 12.6728 10.3482C13.1493 9.26824 13.3787 8.10706 12.9305 7.21765C11.2152 8.41059 10.8517 10.6165 11.794 11.5412C10.8799 13.5812 10.1881 15.9 9.82812 19.4718H10.2658C10.7034 15.6247 11.5717 12.7271 12.1717 11.7071C12.8187 11.7786 13.4733 11.689 14.0774 11.4464C14.6815 11.2038 15.2162 10.8157 15.634 10.3165C15.2601 10.021 14.7976 9.86034 14.3211 9.86034C13.8446 9.86034 13.382 10.021 13.0081 10.3165C13.3875 9.84498 13.8041 9.40474 14.254 9C14.8416 9.30275 15.4985 9.4458 16.1588 9.41483C16.8191 9.38386 17.4597 9.17996 18.0164 8.82353C17.7555 8.43025 17.3707 8.1354 16.9231 7.98577C16.4755 7.83614 15.9907 7.84033 15.5458 7.99765C16.0466 7.66993 16.573 7.38312 17.1199 7.14C17.5872 7.61274 18.1713 7.95348 18.8128 8.12765C19.4544 8.30183 20.1306 8.30325 20.7728 8.13177C20.6397 7.67693 20.3598 7.27895 19.9767 6.99993C19.5936 6.72092 19.1289 6.57657 18.6552 6.58942C18.8917 6.52236 19.1281 6.46589 19.3611 6.41648C20.7966 6.95994 22.388 6.91939 23.794 6.30353Z" fill="#FFC850"/>
<path d="M14.8685 13.1365C10.6332 12.2118 10.6332 20.6365 10.6332 20.6365L14.2226 23.2165C14.2226 23.2165 13.3826 16.5882 14.4167 14.6824C15.2108 13.2247 16.9649 16.4224 17.7308 17.9647C17.7555 18.0125 17.7952 18.051 17.8437 18.0742C17.8923 18.0974 17.9471 18.1041 17.9998 18.0933C18.0525 18.0826 18.1003 18.0549 18.1358 18.0144C18.1714 17.974 18.1927 17.9231 18.1967 17.8694C18.2638 16.4718 17.9638 13.8106 14.8685 13.1365ZM1.4814 2.70354C1.45 2.68003 1.41142 2.66814 1.37223 2.66991C1.33305 2.67168 1.29569 2.68699 1.26653 2.71323C1.23737 2.73947 1.21823 2.77501 1.21236 2.8138C1.20649 2.85258 1.21426 2.8922 1.23434 2.92589C2.55081 5.0153 6.10493 11.0435 7.02963 16.4224C7.02963 16.4224 8.34963 8.03648 1.4814 2.70354Z" fill="#4F974E"/>
<path d="M15.8318 1.30588C14.5859 0.744703 12.7401 1.56706 12.3236 2.82353C12.1048 2.98588 11.893 3.17647 11.6883 3.33882C12.2459 2.52706 12.6201 1.57411 12.3942 0.769409C10.7354 1.53529 10.1177 3.33882 10.8165 4.23529C10.4352 4.67376 10.0949 5.14633 9.80006 5.64706C10.0824 4.7047 10.153 3.70235 9.67653 2.99647C8.33536 4.20706 8.29653 6.11647 9.23889 6.75882C9.00789 7.29837 8.82827 7.8585 8.70241 8.43176C8.68124 7.42941 8.43065 6.45176 7.77418 5.92235C6.87771 7.46117 7.38947 9.29294 8.44124 9.67058C8.17404 12.8649 8.6575 16.0775 9.853 19.0518C9.86624 19.084 9.88872 19.1116 9.91762 19.131C9.94651 19.1505 9.98052 19.161 10.0154 19.1612C10.0374 19.1662 10.0603 19.1662 10.0824 19.1612C10.104 19.1527 10.1236 19.1399 10.1401 19.1237C10.1567 19.1074 10.1698 19.088 10.1786 19.0666C10.1875 19.0452 10.192 19.0223 10.1919 18.9991C10.1917 18.9759 10.1869 18.953 10.1777 18.9318C8.99911 16.0003 8.52755 12.8324 8.80124 9.6847C9.32671 9.50738 9.80018 9.20288 10.1795 8.79832C10.5588 8.39375 10.8322 7.90167 10.9754 7.36588C10.5803 7.27297 10.1656 7.31493 9.79715 7.48507C9.42873 7.6552 9.12784 7.94374 8.94241 8.3047C9.0643 7.80235 9.22841 7.31119 9.433 6.83647C9.997 6.86128 10.5576 6.73699 11.0582 6.47612C11.5589 6.21526 11.9819 5.82704 12.2848 5.35058C11.9398 5.14206 11.5354 5.05389 11.1349 5.09987C10.7344 5.14586 10.3606 5.32341 10.0718 5.6047C10.3402 5.17124 10.6435 4.76045 10.9789 4.37647C11.5098 4.57219 12.0828 4.62467 12.6404 4.52864C13.198 4.43261 13.7205 4.19145 14.1554 3.82941C13.889 3.52549 13.5294 3.31838 13.1329 3.24048C12.7363 3.16257 12.3251 3.21826 11.9636 3.39882C12.1189 3.2647 12.2812 3.13411 12.4471 3.01059C13.7557 2.90987 14.9719 2.29736 15.8318 1.30588Z" fill="#FFC850"/>
<path d="M11.1234 19.3341C6.65164 12.1483 7.32223 3.88238 7.69635 1.18591C7.70135 1.14546 7.69219 1.10453 7.67044 1.07007C7.64869 1.03561 7.61568 1.00974 7.57702 0.996849C7.53835 0.983962 7.49642 0.984853 7.45834 0.999371C7.42026 1.01389 7.38838 1.04114 7.36811 1.0765C0.736349 12.6353 10.0611 23.2165 10.0611 23.2165H14.2152C12.9305 19.9694 11.9599 20.6824 11.1234 19.3341Z" fill="#5BA558"/>
</svg>
